<svg width="88" height="88" viewBox="0 0 88 88" fill="none" xmlns="http://www.w3.org/2000/svg">
<path d="M56.5 44C56.5 56.1162 55.0484 67.0662 52.7129 74.971C51.5442 78.9267 50.1623 82.0914 48.6503 84.2559C47.1283 86.4348 45.549 87.5 44 87.5C42.451 87.5 40.8717 86.4348 39.3497 84.2559C37.8377 82.0914 36.4558 78.9267 35.2871 74.971C32.9516 67.0662 31.5 56.1162 31.5 44C31.5 31.8838 32.9516 20.9338 35.2871 13.029C36.4558 9.07332 37.8377 5.9086 39.3497 3.74407C40.8717 1.56522 42.451 0.5 44 0.5C45.549 0.5 47.1283 1.56522 48.6503 3.74407C50.1623 5.9086 51.5442 9.07332 52.7129 13.029C55.0484 20.9338 56.5 31.8838 56.5 44Z" stroke="black"/>
<path d="M44 31.5C56.1162 31.5 67.0662 32.9516 74.971 35.2871C78.9267 36.4558 82.0914 37.8377 84.2559 39.3497C86.4348 40.8717 87.5 42.451 87.5 44C87.5 45.549 86.4348 47.1283 84.2559 48.6503C82.0914 50.1623 78.9267 51.5442 74.971 52.7129C67.0662 55.0484 56.1162 56.5 44 56.5C31.8838 56.5 20.9338 55.0484 13.029 52.7129C9.07332 51.5442 5.9086 50.1623 3.74407 48.6503C1.56522 47.1283 0.5 45.549 0.5 44C0.5 42.451 1.56522 40.8717 3.74407 39.3497C5.9086 37.8377 9.07332 36.4558 13.029 35.2871C20.9338 32.9516 31.8838 31.5 44 31.5Z" stroke="black"/>
</svg>
